<svg width="39" height="77" viewBox="0 0 39 77" fill="none" xmlns="http://www.w3.org/2000/svg">
<path fill-rule="evenodd" clip-rule="evenodd" d="M16.7276 5.47251C15.1036 9.4043 14.8678 10.9422 14.8934 17.4382C14.9176 23.4947 15.2252 25.6642 16.5347 29.0115C17.4203 31.2775 18.5915 33.1308 19.1356 33.1308C19.6804 33.1308 20.9483 31.1002 21.9529 28.6192C23.4656 24.8843 23.7829 22.9596 23.7975 17.4382C23.8127 11.7402 23.5271 10.054 21.8381 5.86483C20.7506 3.16805 19.5746 0.960876 19.2255 0.960876C18.8763 0.960876 17.7522 2.9915 16.7276 5.47251ZM1.67241 17.6343C2.35617 22.5218 5.02208 28.616 8.17332 32.4968C11.2243 36.2529 16.2678 39.8543 16.8866 38.719C17.6284 37.3561 14.4993 27.7647 11.8576 23.3041C9.29333 18.9745 4.29337 14.2996 2.22758 14.2996C1.41384 14.2996 1.30045 14.9768 1.67241 17.6343ZM32.286 16.6347C28.3909 19.4382 24.8276 25.4281 22.7203 32.7134C20.8073 39.327 21.4634 40.2459 25.7824 36.999C31.4301 32.7534 35.9261 24.8372 36.493 18.1381C36.672 16.0266 36.5282 14.2996 36.1743 14.2996C35.8203 14.2996 34.0704 15.3502 32.286 16.6347ZM0.468746 38.3525C0.210867 38.6452 0 45.1325 0 52.7678V66.6511L3.51006 67.1235C7.90575 67.7143 13.4643 70.5766 16.4932 73.8093C17.7688 75.1714 18.9641 76.2856 19.1487 76.2856C19.3333 76.2856 20.7326 75.0726 22.2592 73.5896C25.8266 70.1247 28.7815 68.5601 34.0746 67.3345L38.3396 66.3475L38.5097 53.0738C38.6037 45.7736 38.4177 39.3239 38.097 38.7425C37.6227 37.8825 36.7993 37.8535 33.686 38.5864C28.9156 39.7107 24.157 43.2227 21.3113 47.721L19.1301 51.1672L17.9616 49.0141C15.985 45.3734 12.9486 42.3942 9.33342 40.5503C5.50879 38.5997 1.19399 37.5295 0.468746 38.3525Z" fill="#D57F10"/>
</svg>
